# xmcd
#
# Track frame offsets: 
#        150
#        11694
#        22593
#        32256
#        43629
#        53397
#        65386
#        77230
#        89529
#        99187
#        109699
#        120926
#        132443
#        140647
#        151559
#        162033
#        171948
#        180777
#        190990
#        202306
#        213557
#        226789
#        237687
#        248034
#        260610
#        272828
#        285353
#        295951
#        305901
#        316984
#
# Disc length: 4359 seconds
#
# Revision: 0
# Processed by: cddbd v1.5.2PL0 Copyright (c) Steve Scherf et al.
# Submitted via: ExactAudioCopy v0.99pb5
#
DISCID=9511051e
DTITLE=Ruth Brown - Taking Care Of Business - Disc 2
DYEAR=2011
DGENRE=Blues
TTITLE0=Smooth Operator
TTITLE1=I Still Love You
TTITLE2=Lucky Lips
TTITLE3=My Heart Is Breaking Over You
TTITLE4=When I Get You Baby
TTITLE5=One More Time
TTITLE6=Show Me
TTITLE7=I Hope We Meet Again (On The Road Someday)
TTITLE8=A New Love
TTITLE9=Look Me Up
TTITLE10=Just Too Much
TTITLE11=Book Of Lies
TTITLE12=This Little Girl's Gone Rockin'
TTITLE13=Why Me
TTITLE14=Mama He Treats Your Daughter Mean
TTITLE15=I'll Step Aside
TTITLE16=Itty Bitty Girl
TTITLE17=5-10-15 Hours
TTITLE18=Jack O'Diamonds
TTITLE19=I Can't Hear A Word You Say
TTITLE20=I Don't Know
TTITLE21=Papa Daddy
TTITLE22=Don't Recieve Me
TTITLE23=I Burned Your Letter
TTITLE24=What I Wouldn't Give
TTITLE25=The Door Is Still Open
TTITLE26=Taking Care Of Business
TTITLE27=Honey Boy
TTITLE28=Sure 'Nuff
TTITLE29=Here He Comes
EXTD=
EXTT0=
EXTT1=
EXTT2=
EXTT3=
EXTT4=
EXTT5=
EXTT6=
EXTT7=
EXTT8=
EXTT9=
EXTT10=
EXTT11=
EXTT12=
EXTT13=
EXTT14=
EXTT15=
EXTT16=
EXTT17=
EXTT18=
EXTT19=
EXTT20=
EXTT21=
EXTT22=
EXTT23=
EXTT24=
EXTT25=
EXTT26=
EXTT27=
EXTT28=
EXTT29=
PLAYORDER=
